<mxfile host="app.diagrams.net" agent="Mozilla/5.0 (Windows NT 10.0; Win64; x64) AppleWebKit/537.36 (KHTML, like Gecko) Chrome/130.0.0.0 Safari/537.36" version="24.7.17">
  <diagram name="Page-1" id="c4acf3e9-155e-7222-9cf6-157b1a14988f">
    <mxGraphModel dx="1050" dy="1777" grid="1" gridSize="10" guides="1" tooltips="1" connect="1" arrows="1" fold="1" page="1" pageScale="1" pageWidth="850" pageHeight="1100" background="none" math="0" shadow="0">
      <root>
        <mxCell id="0" />
        <mxCell id="1" parent="0" />
        <mxCell id="PUs5DuuFOeAGEc7csUs9-1" value="Ticket" style="swimlane;fontStyle=1;align=center;verticalAlign=top;childLayout=stackLayout;horizontal=1;startSize=26;horizontalStack=0;resizeParent=1;resizeParentMax=0;resizeLast=0;collapsible=1;marginBottom=0;whiteSpace=wrap;html=1;" parent="1" vertex="1">
          <mxGeometry x="570" y="370" width="230" height="460" as="geometry" />
        </mxCell>
        <mxCell id="PUs5DuuFOeAGEc7csUs9-2" value="&lt;div&gt;- title: String&lt;/div&gt;&lt;div&gt;- category: Category&lt;/div&gt;&lt;div&gt;- description: String&lt;/div&gt;&lt;div&gt;- createTime: DateTime&lt;br&gt;&lt;/div&gt;&lt;div&gt;- deadline: DateTime&lt;/div&gt;&lt;div&gt;-isAssigned: Boolean&lt;/div&gt;&lt;div&gt;- isComplete: Boolean&lt;/div&gt;&lt;div&gt;- owner: Owner&lt;/div&gt;&lt;div&gt;- assignedTo: User&lt;/div&gt;&lt;div&gt;- amountDue: Integer&lt;/div&gt;&lt;div&gt;- isPaid: Boolean&lt;/div&gt;&lt;div&gt;- chat: Chat&lt;/div&gt;&lt;div&gt;&lt;br&gt;&lt;/div&gt;&lt;div&gt;&lt;br&gt;&lt;/div&gt;&lt;div&gt;&lt;br&gt;&lt;/div&gt;&lt;div&gt;&lt;br&gt;&lt;/div&gt;&lt;div&gt;&lt;br&gt;&lt;div&gt;&lt;br&gt;&lt;/div&gt;&lt;/div&gt;" style="text;strokeColor=none;fillColor=none;align=left;verticalAlign=top;spacingLeft=4;spacingRight=4;overflow=hidden;rotatable=0;points=[[0,0.5],[1,0.5]];portConstraint=eastwest;whiteSpace=wrap;html=1;" parent="PUs5DuuFOeAGEc7csUs9-1" vertex="1">
          <mxGeometry y="26" width="230" height="194" as="geometry" />
        </mxCell>
        <mxCell id="PUs5DuuFOeAGEc7csUs9-3" value="" style="line;strokeWidth=1;fillColor=none;align=left;verticalAlign=middle;spacingTop=-1;spacingLeft=3;spacingRight=3;rotatable=0;labelPosition=right;points=[];portConstraint=eastwest;strokeColor=inherit;" parent="PUs5DuuFOeAGEc7csUs9-1" vertex="1">
          <mxGeometry y="220" width="230" height="8" as="geometry" />
        </mxCell>
        <mxCell id="PUs5DuuFOeAGEc7csUs9-4" value="- assign&lt;span style=&quot;white-space: pre;&quot;&gt;&#x9;&lt;/span&gt;(user: User): User&lt;div&gt;- dismiss&amp;nbsp; (user: User): User&lt;/div&gt;&lt;div&gt;- close(): Void&lt;br&gt;&lt;div&gt;- markDone(status: Status): Boolean&lt;/div&gt;&lt;div&gt;&amp;nbsp;&lt;span style=&quot;background-color: initial;&quot;&gt;- getTitle(): String&lt;/span&gt;&lt;/div&gt;&lt;div&gt;&lt;span style=&quot;background-color: initial;&quot;&gt;- setTitle(title: String): String&lt;/span&gt;&lt;/div&gt;&lt;div&gt;&lt;span style=&quot;background-color: initial;&quot;&gt;- getDescription(): String&lt;/span&gt;&lt;/div&gt;&lt;div&gt;&lt;span style=&quot;background-color: initial;&quot;&gt;- setDescription(des: String): String&lt;/span&gt;&lt;/div&gt;&lt;div&gt;&lt;span style=&quot;background-color: initial;&quot;&gt;- setDeadline(date: DateTime): void&lt;/span&gt;&lt;/div&gt;&lt;div&gt;&lt;span style=&quot;background-color: initial;&quot;&gt;- getDeadline(): DateTime&lt;/span&gt;&lt;/div&gt;&lt;div&gt;&lt;span style=&quot;background-color: initial;&quot;&gt;&lt;br&gt;&lt;/span&gt;&lt;/div&gt;&lt;div&gt;&lt;br&gt;&lt;/div&gt;&lt;/div&gt;" style="text;strokeColor=none;fillColor=none;align=left;verticalAlign=top;spacingLeft=4;spacingRight=4;overflow=hidden;rotatable=0;points=[[0,0.5],[1,0.5]];portConstraint=eastwest;whiteSpace=wrap;html=1;" parent="PUs5DuuFOeAGEc7csUs9-1" vertex="1">
          <mxGeometry y="228" width="230" height="232" as="geometry" />
        </mxCell>
        <mxCell id="PUs5DuuFOeAGEc7csUs9-5" value="&amp;lt;&amp;lt;Enumeration&amp;gt;&amp;gt;&lt;div&gt;Category&lt;/div&gt;" style="swimlane;fontStyle=0;childLayout=stackLayout;horizontal=1;startSize=26;fillColor=none;horizontalStack=0;resizeParent=1;resizeParentMax=0;resizeLast=0;collapsible=1;marginBottom=0;whiteSpace=wrap;html=1;" parent="1" vertex="1">
          <mxGeometry x="340" y="-86" width="150" height="166" as="geometry" />
        </mxCell>
        <mxCell id="PUs5DuuFOeAGEc7csUs9-6" value="&lt;div&gt;Errands&lt;br&gt;&lt;/div&gt;&lt;div&gt;Landscaping&lt;/div&gt;&lt;div&gt;Food Delivery&lt;br&gt;&lt;/div&gt;&lt;div&gt;Pet care&lt;/div&gt;&lt;div&gt;Traveling&lt;/div&gt;&lt;div&gt;Cleaning&amp;nbsp;&lt;/div&gt;&lt;div&gt;Gear Rental&lt;br&gt;&lt;/div&gt;&lt;div&gt;Other&lt;/div&gt;&lt;div&gt;&lt;br&gt;&lt;/div&gt;" style="text;html=1;align=center;verticalAlign=middle;resizable=0;points=[];autosize=1;strokeColor=none;fillColor=none;" parent="PUs5DuuFOeAGEc7csUs9-5" vertex="1">
          <mxGeometry y="26" width="150" height="140" as="geometry" />
        </mxCell>
        <mxCell id="PUs5DuuFOeAGEc7csUs9-7" value="" style="endArrow=diamondThin;endFill=1;endSize=24;html=1;rounded=0;exitX=1;exitY=0.443;exitDx=0;exitDy=0;entryX=0;entryY=0.336;entryDx=0;entryDy=0;entryPerimeter=0;exitPerimeter=0;" parent="1" source="PUs5DuuFOeAGEc7csUs9-20" target="PUs5DuuFOeAGEc7csUs9-2" edge="1">
          <mxGeometry width="160" relative="1" as="geometry">
            <mxPoint x="450" y="389" as="sourcePoint" />
            <mxPoint x="500" y="340" as="targetPoint" />
          </mxGeometry>
        </mxCell>
        <mxCell id="PUs5DuuFOeAGEc7csUs9-8" value="1" style="text;html=1;align=center;verticalAlign=middle;resizable=0;points=[];autosize=1;strokeColor=none;fillColor=none;" parent="1" vertex="1">
          <mxGeometry x="450" y="480" width="30" height="30" as="geometry" />
        </mxCell>
        <mxCell id="PUs5DuuFOeAGEc7csUs9-9" value="&amp;lt;&amp;lt;Enumeration&amp;gt;&amp;gt;&lt;div&gt;Status&lt;/div&gt;" style="swimlane;fontStyle=0;childLayout=stackLayout;horizontal=1;startSize=26;fillColor=none;horizontalStack=0;resizeParent=1;resizeParentMax=0;resizeLast=0;collapsible=1;marginBottom=0;whiteSpace=wrap;html=1;" parent="1" vertex="1">
          <mxGeometry x="530" y="-51" width="150" height="96" as="geometry" />
        </mxCell>
        <mxCell id="PUs5DuuFOeAGEc7csUs9-10" value="Open&lt;div&gt;InProgress&lt;/div&gt;&lt;div&gt;Done&lt;/div&gt;&lt;div&gt;Closed&lt;/div&gt;" style="text;html=1;align=center;verticalAlign=middle;resizable=0;points=[];autosize=1;strokeColor=none;fillColor=none;" parent="PUs5DuuFOeAGEc7csUs9-9" vertex="1">
          <mxGeometry y="26" width="150" height="70" as="geometry" />
        </mxCell>
        <mxCell id="PUs5DuuFOeAGEc7csUs9-11" value="&amp;lt;&amp;lt;Enumeration&amp;gt;&amp;gt;&lt;div&gt;Priority&lt;/div&gt;" style="swimlane;fontStyle=0;childLayout=stackLayout;horizontal=1;startSize=26;fillColor=none;horizontalStack=0;resizeParent=1;resizeParentMax=0;resizeLast=0;collapsible=1;marginBottom=0;whiteSpace=wrap;html=1;" parent="1" vertex="1">
          <mxGeometry x="700" y="-51" width="150" height="86" as="geometry" />
        </mxCell>
        <mxCell id="PUs5DuuFOeAGEc7csUs9-12" value="&lt;div&gt;Low&lt;/div&gt;&lt;div&gt;&lt;span style=&quot;background-color: initial;&quot;&gt;Medium&lt;/span&gt;&lt;/div&gt;&lt;div&gt;&lt;span style=&quot;background-color: initial;&quot;&gt;High&lt;/span&gt;&lt;br&gt;&lt;/div&gt;" style="text;html=1;align=center;verticalAlign=middle;resizable=0;points=[];autosize=1;strokeColor=none;fillColor=none;" parent="PUs5DuuFOeAGEc7csUs9-11" vertex="1">
          <mxGeometry y="26" width="150" height="60" as="geometry" />
        </mxCell>
        <mxCell id="PUs5DuuFOeAGEc7csUs9-13" value="&lt;p style=&quot;margin:0px;margin-top:4px;text-align:center;&quot;&gt;&lt;b&gt;User&lt;/b&gt;&lt;/p&gt;&lt;hr size=&quot;1&quot; style=&quot;border-style:solid;&quot;&gt;&lt;p style=&quot;margin:0px;margin-left:4px;&quot;&gt;&lt;span style=&quot;background-color: initial;&quot;&gt;- name: String&lt;/span&gt;&lt;/p&gt;&lt;p style=&quot;margin:0px;margin-left:4px;&quot;&gt;- age: Integer&lt;/p&gt;&lt;p style=&quot;margin:0px;margin-left:4px;&quot;&gt;- myCreatedTickets: List&amp;lt;Ticket&amp;gt;&lt;/p&gt;&lt;p style=&quot;margin:0px;margin-left:4px;&quot;&gt;-myAssignedTickets:&amp;nbsp;&lt;span style=&quot;background-color: initial;&quot;&gt;List&amp;lt;Ticket&amp;gt;&lt;/span&gt;&lt;/p&gt;&lt;p style=&quot;margin:0px;margin-left:4px;&quot;&gt;- completeTicket: Integer&lt;/p&gt;&lt;hr size=&quot;1&quot; style=&quot;border-style:solid;&quot;&gt;&lt;p style=&quot;margin:0px;margin-left:4px;&quot;&gt;- getAllTickets(): List&amp;lt;Ticket&amp;gt;&lt;/p&gt;&lt;p style=&quot;margin:0px;margin-left:4px;&quot;&gt;- getMyCreatedTickets(): List&amp;lt;Ticket&amp;gt;&lt;/p&gt;&lt;p style=&quot;margin:0px;margin-left:4px;&quot;&gt;&lt;br&gt;&lt;/p&gt;" style="verticalAlign=top;align=left;overflow=fill;html=1;whiteSpace=wrap;" parent="1" vertex="1">
          <mxGeometry x="10" y="440" width="160" height="200" as="geometry" />
        </mxCell>
        <mxCell id="PUs5DuuFOeAGEc7csUs9-14" value="" style="endArrow=block;endFill=1;html=1;align=left;verticalAlign=top;rounded=0;exitX=0.296;exitY=-0.003;exitDx=0;exitDy=0;exitPerimeter=0;entryX=0.827;entryY=1.007;entryDx=0;entryDy=0;entryPerimeter=0;" parent="1" source="PUs5DuuFOeAGEc7csUs9-1" target="PUs5DuuFOeAGEc7csUs9-6" edge="1">
          <mxGeometry x="-1" relative="1" as="geometry">
            <mxPoint x="570.02" y="382.1" as="sourcePoint" />
            <mxPoint x="500" y="290" as="targetPoint" />
            <mxPoint as="offset" />
          </mxGeometry>
        </mxCell>
        <mxCell id="PUs5DuuFOeAGEc7csUs9-15" value="" style="endArrow=block;endFill=1;html=1;align=left;verticalAlign=top;rounded=0;exitX=0.448;exitY=-0.013;exitDx=0;exitDy=0;exitPerimeter=0;entryX=0.653;entryY=0.967;entryDx=0;entryDy=0;entryPerimeter=0;" parent="1" source="PUs5DuuFOeAGEc7csUs9-1" target="PUs5DuuFOeAGEc7csUs9-10" edge="1">
          <mxGeometry x="-1" relative="1" as="geometry">
            <mxPoint x="608" y="379" as="sourcePoint" />
            <mxPoint x="394" y="297" as="targetPoint" />
          </mxGeometry>
        </mxCell>
        <mxCell id="PUs5DuuFOeAGEc7csUs9-16" value="" style="endArrow=block;endFill=1;html=1;align=left;verticalAlign=top;rounded=0;entryX=0.693;entryY=1.017;entryDx=0;entryDy=0;entryPerimeter=0;exitX=0.583;exitY=-0.013;exitDx=0;exitDy=0;exitPerimeter=0;" parent="1" source="PUs5DuuFOeAGEc7csUs9-1" target="PUs5DuuFOeAGEc7csUs9-12" edge="1">
          <mxGeometry x="-1" relative="1" as="geometry">
            <mxPoint x="679" y="370" as="sourcePoint" />
            <mxPoint x="558" y="244" as="targetPoint" />
            <mxPoint as="offset" />
          </mxGeometry>
        </mxCell>
        <mxCell id="PUs5DuuFOeAGEc7csUs9-17" value="&lt;p style=&quot;margin:0px;margin-top:4px;text-align:center;&quot;&gt;AssignedUser&lt;br&gt;&lt;/p&gt;&lt;hr size=&quot;1&quot; style=&quot;border-style:solid;&quot;&gt;&lt;p style=&quot;margin:0px;margin-left:4px;&quot;&gt;- myAssignedTickets:&amp;nbsp;&lt;span style=&quot;--tw-border-spacing-x: 0; --tw-border-spacing-y: 0; --tw-translate-x: 0; --tw-translate-y: 0; --tw-rotate: 0; --tw-skew-x: 0; --tw-skew-y: 0; --tw-scale-x: 1; --tw-scale-y: 1; --tw-pan-x: ; --tw-pan-y: ; --tw-pinch-zoom: ; --tw-scroll-snap-strictness: proximity; --tw-gradient-from-position: ; --tw-gradient-via-position: ; --tw-gradient-to-position: ; --tw-ordinal: ; --tw-slashed-zero: ; --tw-numeric-figure: ; --tw-numeric-spacing: ; --tw-numeric-fraction: ; --tw-ring-inset: ; --tw-ring-offset-width: 0px; --tw-ring-offset-color: #fff; --tw-ring-color: rgb(59 130 246 / .5); --tw-ring-offset-shadow: 0 0 #0000; --tw-ring-shadow: 0 0 #0000; --tw-shadow: 0 0 #0000; --tw-shadow-colored: 0 0 #0000; --tw-blur: ; --tw-brightness: ; --tw-contrast: ; --tw-grayscale: ; --tw-hue-rotate: ; --tw-invert: ; --tw-saturate: ; --tw-sepia: ; --tw-drop-shadow: ; --tw-backdrop-blur: ; --tw-backdrop-brightness: ; --tw-backdrop-contrast: ; --tw-backdrop-grayscale: ; --tw-backdrop-hue-rotate: ; --tw-backdrop-invert: ; --tw-backdrop-opacity: ; --tw-backdrop-saturate: ; --tw-backdrop-sepia: ; background-color: initial;&quot;&gt;List&amp;lt;Ticket&amp;gt;&lt;/span&gt;&lt;br&gt;&lt;/p&gt;&lt;hr size=&quot;1&quot; style=&quot;border-style:solid;&quot;&gt;&lt;p style=&quot;margin:0px;margin-left:4px;&quot;&gt;- requestUpdateStatus(): Boolean&lt;/p&gt;&lt;p style=&quot;margin:0px;margin-left:4px;&quot;&gt;- pickUpTicket(ticket: Ticket): Boolean&lt;/p&gt;&lt;p style=&quot;margin:0px;margin-left:4px;&quot;&gt;- dropTicket(ticket: Ticket): boolean&lt;/p&gt;&lt;p style=&quot;margin:0px;margin-left:4px;&quot;&gt;- finishTicket(ticket: Ticket): Boolean&lt;/p&gt;&lt;p style=&quot;margin:0px;margin-left:4px;&quot;&gt;- getMyAssignedTickets(): List&amp;lt;Tickets&amp;gt;&lt;/p&gt;&lt;p style=&quot;margin:0px;margin-left:4px;&quot;&gt;&lt;br&gt;&lt;/p&gt;" style="verticalAlign=top;align=left;overflow=fill;html=1;whiteSpace=wrap;" parent="1" vertex="1">
          <mxGeometry x="320" y="620" width="190" height="210" as="geometry" />
        </mxCell>
        <mxCell id="PUs5DuuFOeAGEc7csUs9-18" value="Extends" style="endArrow=block;endSize=16;endFill=0;html=1;rounded=0;entryX=0.994;entryY=0.7;entryDx=0;entryDy=0;entryPerimeter=0;exitX=-0.007;exitY=0.407;exitDx=0;exitDy=0;exitPerimeter=0;" parent="1" source="PUs5DuuFOeAGEc7csUs9-20" target="PUs5DuuFOeAGEc7csUs9-13" edge="1">
          <mxGeometry width="160" relative="1" as="geometry">
            <mxPoint x="310" y="376" as="sourcePoint" />
            <mxPoint x="500" y="390" as="targetPoint" />
          </mxGeometry>
        </mxCell>
        <mxCell id="PUs5DuuFOeAGEc7csUs9-19" value="Extends" style="endArrow=block;endSize=16;endFill=0;html=1;rounded=0;entryX=1.013;entryY=0.943;entryDx=0;entryDy=0;entryPerimeter=0;exitX=-0.021;exitY=0.35;exitDx=0;exitDy=0;exitPerimeter=0;" parent="1" source="PUs5DuuFOeAGEc7csUs9-17" target="PUs5DuuFOeAGEc7csUs9-13" edge="1">
          <mxGeometry width="160" relative="1" as="geometry">
            <mxPoint x="340" y="390" as="sourcePoint" />
            <mxPoint x="500" y="390" as="targetPoint" />
          </mxGeometry>
        </mxCell>
        <mxCell id="PUs5DuuFOeAGEc7csUs9-20" value="&lt;p style=&quot;margin:0px;margin-top:4px;text-align:center;&quot;&gt;Owner&lt;/p&gt;&lt;hr size=&quot;1&quot; style=&quot;border-style:solid;&quot;&gt;&lt;p style=&quot;margin:0px;margin-left:4px;&quot;&gt;- myCreatedTickets: List&amp;lt;Ticket&amp;gt;&lt;br&gt;&lt;/p&gt;&lt;hr size=&quot;1&quot; style=&quot;border-style:solid;&quot;&gt;&lt;p style=&quot;margin:0px;margin-left:4px;&quot;&gt;- createTicket(title, category, description, deadline, amountDue): Ticket&lt;/p&gt;&lt;p style=&quot;margin:0px;margin-left:4px;&quot;&gt;- editTitle(newTitle: String)&lt;/p&gt;&lt;p style=&quot;margin:0px;margin-left:4px;&quot;&gt;-&lt;span style=&quot;background-color: initial;&quot;&gt;editDescription(newDescription: String): Boolean&amp;nbsp;&lt;/span&gt;&lt;/p&gt;&lt;p style=&quot;margin:0px;margin-left:4px;&quot;&gt;&lt;span style=&quot;background-color: initial;&quot;&gt;-&lt;/span&gt;&lt;span style=&quot;background-color: initial;&quot;&gt;editDeadline(newTitle: String) : Boolean&lt;/span&gt;&lt;/p&gt;&lt;p style=&quot;margin:0px;margin-left:4px;&quot;&gt;- editAmount(price: Integer, ticket, Ticket) : Ticket&lt;span style=&quot;background-color: initial;&quot;&gt;&lt;br&gt;&lt;/span&gt;&lt;/p&gt;&lt;p style=&quot;margin:0px;margin-left:4px;&quot;&gt;&lt;span style=&quot;background-color: initial;&quot;&gt;- getMyCreatedTickets(): List&amp;lt;Ticket&amp;gt;&lt;/span&gt;&lt;/p&gt;&lt;p style=&quot;margin:0px;margin-left:4px;&quot;&gt;&lt;span style=&quot;background-color: initial;&quot;&gt;- reviewTicket(ticket: Ticket): Ticket&lt;/span&gt;&lt;/p&gt;&lt;p style=&quot;margin:0px;margin-left:4px;&quot;&gt;&lt;span style=&quot;background-color: initial;&quot;&gt;&lt;br&gt;&lt;/span&gt;&lt;/p&gt;&lt;p style=&quot;margin:0px;margin-left:4px;&quot;&gt;&lt;br&gt;&lt;/p&gt;&lt;p style=&quot;margin:0px;margin-left:4px;&quot;&gt;&lt;span style=&quot;background-color: initial;&quot;&gt;&lt;br&gt;&lt;/span&gt;&lt;/p&gt;" style="verticalAlign=top;align=left;overflow=fill;html=1;whiteSpace=wrap;" parent="1" vertex="1">
          <mxGeometry x="320" y="340" width="180" height="270" as="geometry" />
        </mxCell>
        <mxCell id="sykdTOheD-3CVo73PrT--1" value="&lt;p style=&quot;margin:0px;margin-top:4px;text-align:center;&quot;&gt;&lt;b&gt;Feed&lt;/b&gt;&lt;/p&gt;&lt;hr size=&quot;1&quot; style=&quot;border-style:solid;&quot;&gt;&lt;p style=&quot;margin:0px;margin-left:4px;&quot;&gt;+ allTickets:&amp;nbsp;&lt;span style=&quot;background-color: initial;&quot;&gt;List&amp;lt;Ticket&amp;gt;&lt;/span&gt;&lt;/p&gt;&lt;p style=&quot;margin:0px;margin-left:4px;&quot;&gt;&lt;span style=&quot;background-color: initial;&quot;&gt;+ categoryFilters: Category[]\&lt;/span&gt;&lt;/p&gt;&lt;p style=&quot;margin:0px;margin-left:4px;&quot;&gt;&lt;span style=&quot;background-color: initial;&quot;&gt;+ priceFilters: Tuple&amp;lt;min, max&amp;gt;&lt;/span&gt;&lt;/p&gt;&lt;p style=&quot;margin:0px;margin-left:4px;&quot;&gt;&lt;br&gt;&lt;/p&gt;&lt;hr size=&quot;1&quot; style=&quot;border-style:solid;&quot;&gt;&lt;p style=&quot;margin:0px;margin-left:4px;&quot;&gt;+ displayTickets(): List&amp;lt;Ticket&amp;gt;&lt;/p&gt;&lt;p style=&quot;margin:0px;margin-left:4px;&quot;&gt;+ applyFilters(): List&amp;lt;Ticket&amp;gt;&lt;/p&gt;&lt;p style=&quot;margin:0px;margin-left:4px;&quot;&gt;&lt;br&gt;&lt;/p&gt;" style="verticalAlign=top;align=left;overflow=fill;html=1;whiteSpace=wrap;" parent="1" vertex="1">
          <mxGeometry x="180" y="140" width="200" height="160" as="geometry" />
        </mxCell>
        <mxCell id="sykdTOheD-3CVo73PrT--2" value="" style="endArrow=diamondThin;endFill=1;endSize=24;html=1;rounded=0;exitX=1;exitY=0.454;exitDx=0;exitDy=0;entryX=-0.003;entryY=0.69;entryDx=0;entryDy=0;entryPerimeter=0;exitPerimeter=0;" parent="1" source="PUs5DuuFOeAGEc7csUs9-17" target="PUs5DuuFOeAGEc7csUs9-2" edge="1">
          <mxGeometry width="160" relative="1" as="geometry">
            <mxPoint x="520" y="860" as="sourcePoint" />
            <mxPoint x="590" y="861" as="targetPoint" />
          </mxGeometry>
        </mxCell>
        <mxCell id="sykdTOheD-3CVo73PrT--4" value="" style="endArrow=block;endFill=1;html=1;align=left;verticalAlign=top;rounded=0;exitX=0.5;exitY=0;exitDx=0;exitDy=0;entryX=-0.003;entryY=0.716;entryDx=0;entryDy=0;entryPerimeter=0;" parent="1" source="sykdTOheD-3CVo73PrT--1" target="PUs5DuuFOeAGEc7csUs9-6" edge="1">
          <mxGeometry x="-1" relative="1" as="geometry">
            <mxPoint x="194" y="128" as="sourcePoint" />
            <mxPoint x="20" y="-160" as="targetPoint" />
            <mxPoint as="offset" />
          </mxGeometry>
        </mxCell>
        <mxCell id="sykdTOheD-3CVo73PrT--5" value="Use" style="endArrow=open;endSize=12;dashed=1;html=1;rounded=0;exitX=1;exitY=0.5;exitDx=0;exitDy=0;entryX=0;entryY=0;entryDx=0;entryDy=0;" parent="1" source="sykdTOheD-3CVo73PrT--1" target="PUs5DuuFOeAGEc7csUs9-1" edge="1">
          <mxGeometry width="160" relative="1" as="geometry">
            <mxPoint x="400" y="270" as="sourcePoint" />
            <mxPoint x="560" y="270" as="targetPoint" />
          </mxGeometry>
        </mxCell>
        <mxCell id="8jaDlg2_PKUIBDGhKvGF-1" value="Profile" style="swimlane;fontStyle=1;align=center;verticalAlign=top;childLayout=stackLayout;horizontal=1;startSize=26;horizontalStack=0;resizeParent=1;resizeParentMax=0;resizeLast=0;collapsible=1;marginBottom=0;whiteSpace=wrap;html=1;" parent="1" vertex="1">
          <mxGeometry x="40" y="770" width="180" height="260" as="geometry" />
        </mxCell>
        <mxCell id="8jaDlg2_PKUIBDGhKvGF-2" value="+ user: User&amp;nbsp;" style="text;strokeColor=none;fillColor=none;align=left;verticalAlign=top;spacingLeft=4;spacingRight=4;overflow=hidden;rotatable=0;points=[[0,0.5],[1,0.5]];portConstraint=eastwest;whiteSpace=wrap;html=1;" parent="8jaDlg2_PKUIBDGhKvGF-1" vertex="1">
          <mxGeometry y="26" width="180" height="26" as="geometry" />
        </mxCell>
        <mxCell id="8jaDlg2_PKUIBDGhKvGF-3" value="" style="line;strokeWidth=1;fillColor=none;align=left;verticalAlign=middle;spacingTop=-1;spacingLeft=3;spacingRight=3;rotatable=0;labelPosition=right;points=[];portConstraint=eastwest;strokeColor=inherit;" parent="8jaDlg2_PKUIBDGhKvGF-1" vertex="1">
          <mxGeometry y="52" width="180" height="8" as="geometry" />
        </mxCell>
        <mxCell id="8jaDlg2_PKUIBDGhKvGF-4" value="+ showCreatedTickets: List&amp;lt;Ticket&amp;gt;&lt;div&gt;+ showClaimedTickets: List&amp;lt;Ticket&amp;gt;&lt;/div&gt;&lt;div&gt;+ showCompletedTickets:&lt;/div&gt;&lt;div&gt;List&amp;lt;Ticket&amp;gt;&lt;br&gt;&lt;div&gt;+ getNumCreatedTickets: integer&lt;/div&gt;&lt;div&gt;+ getNumClaimedTickets: integer&lt;/div&gt;&lt;div&gt;+ getNumCompletedTickets: integer&lt;/div&gt;&lt;/div&gt;" style="text;strokeColor=none;fillColor=none;align=left;verticalAlign=top;spacingLeft=4;spacingRight=4;overflow=hidden;rotatable=0;points=[[0,0.5],[1,0.5]];portConstraint=eastwest;whiteSpace=wrap;html=1;" parent="8jaDlg2_PKUIBDGhKvGF-1" vertex="1">
          <mxGeometry y="60" width="180" height="200" as="geometry" />
        </mxCell>
        <mxCell id="8jaDlg2_PKUIBDGhKvGF-5" value="Use" style="endArrow=open;endSize=12;dashed=1;html=1;rounded=0;entryX=0.5;entryY=1;entryDx=0;entryDy=0;exitX=0.5;exitY=0;exitDx=0;exitDy=0;" parent="1" source="8jaDlg2_PKUIBDGhKvGF-1" target="PUs5DuuFOeAGEc7csUs9-13" edge="1">
          <mxGeometry width="160" relative="1" as="geometry">
            <mxPoint x="50" y="710" as="sourcePoint" />
            <mxPoint x="210" y="710" as="targetPoint" />
          </mxGeometry>
        </mxCell>
        <mxCell id="8jaDlg2_PKUIBDGhKvGF-6" value="Chat" style="swimlane;fontStyle=1;align=center;verticalAlign=top;childLayout=stackLayout;horizontal=1;startSize=26;horizontalStack=0;resizeParent=1;resizeParentMax=0;resizeLast=0;collapsible=1;marginBottom=0;whiteSpace=wrap;html=1;" parent="1" vertex="1">
          <mxGeometry x="460" y="900" width="160" height="280" as="geometry" />
        </mxCell>
        <mxCell id="8jaDlg2_PKUIBDGhKvGF-7" value="+ Owner: User&lt;div&gt;+ Assignee: User&lt;/div&gt;&lt;div&gt;+ OwnerMessages: List&amp;lt;string&amp;gt;&lt;/div&gt;&lt;div&gt;+ AssigneeMessages: List&amp;lt;string&amp;gt;&lt;/div&gt;&lt;div&gt;+ chatId: Integer&lt;/div&gt;" style="text;strokeColor=none;fillColor=none;align=left;verticalAlign=top;spacingLeft=4;spacingRight=4;overflow=hidden;rotatable=0;points=[[0,0.5],[1,0.5]];portConstraint=eastwest;whiteSpace=wrap;html=1;" parent="8jaDlg2_PKUIBDGhKvGF-6" vertex="1">
          <mxGeometry y="26" width="160" height="124" as="geometry" />
        </mxCell>
        <mxCell id="8jaDlg2_PKUIBDGhKvGF-8" value="" style="line;strokeWidth=1;fillColor=none;align=left;verticalAlign=middle;spacingTop=-1;spacingLeft=3;spacingRight=3;rotatable=0;labelPosition=right;points=[];portConstraint=eastwest;strokeColor=inherit;" parent="8jaDlg2_PKUIBDGhKvGF-6" vertex="1">
          <mxGeometry y="150" width="160" height="8" as="geometry" />
        </mxCell>
        <mxCell id="8jaDlg2_PKUIBDGhKvGF-9" value="+ sendMessage(mess: string): boolean&lt;div&gt;+ receiveMessage() : boolean&lt;/div&gt;&lt;div&gt;+deleteMessage&amp;lt;mess: string&amp;gt;&amp;nbsp;&lt;/div&gt;" style="text;strokeColor=none;fillColor=none;align=left;verticalAlign=top;spacingLeft=4;spacingRight=4;overflow=hidden;rotatable=0;points=[[0,0.5],[1,0.5]];portConstraint=eastwest;whiteSpace=wrap;html=1;" parent="8jaDlg2_PKUIBDGhKvGF-6" vertex="1">
          <mxGeometry y="158" width="160" height="122" as="geometry" />
        </mxCell>
        <mxCell id="8jaDlg2_PKUIBDGhKvGF-10" value="" style="endArrow=diamondThin;endFill=0;endSize=24;html=1;rounded=0;exitX=0.5;exitY=0;exitDx=0;exitDy=0;entryX=0.097;entryY=1.013;entryDx=0;entryDy=0;entryPerimeter=0;" parent="1" source="8jaDlg2_PKUIBDGhKvGF-6" target="PUs5DuuFOeAGEc7csUs9-4" edge="1">
          <mxGeometry width="160" relative="1" as="geometry">
            <mxPoint x="640" y="890" as="sourcePoint" />
            <mxPoint x="800" y="890" as="targetPoint" />
          </mxGeometry>
        </mxCell>
      </root>
    </mxGraphModel>
  </diagram>
</mxfile>
